<?xml version="1.0" encoding="UTF-8"?>
<!DOCTYPE svg PUBLIC "-//W3C//DTD SVG 1.1//EN" "http://www.w3.org/Graphics/SVG/1.1/DTD/svg11.dtd">
<!-- Creator: CorelDRAW -->
<svg xmlns="http://www.w3.org/2000/svg" xml:space="preserve" width="13.3823mm" height="13.3819mm" version="1.1" style="shape-rendering:geometricPrecision; text-rendering:geometricPrecision; image-rendering:optimizeQuality; fill-rule:evenodd; clip-rule:evenodd"
viewBox="0 0 677.71 677.69"
 xmlns:xlink="http://www.w3.org/1999/xlink"
 xmlns:xodm="http://www.corel.com/coreldraw/odm/2003">
 <defs>
  <style type="text/css">
   <![CDATA[
    .fil1 {fill:white}
    .fil0 {fill:url(#id0)}
   ]]>
  </style>
  <linearGradient id="id0" gradientUnits="userSpaceOnUse" x1="337.44" y1="676.62" x2="337.44" y2="-1.74">
   <stop offset="0" style="stop-opacity:1; stop-color:#25CF43"/>
   <stop offset="1" style="stop-opacity:1; stop-color:#61FD7D"/>
  </linearGradient>
 </defs>
 <g id="Camada_x0020_1">
  <metadata id="CorelCorpID_0Corel-Layer"/>
  <g id="_1832604521296">
   <g id="Icon_Shape" data-name="Icon Shape">
    <path class="fil0" d="M677.65 505.71c0,3.71 -0.12,11.75 -0.33,17.96 -0.55,15.2 -1.75,34.85 -3.57,43.78 -2.74,13.43 -6.88,26.13 -12.27,36.68 -6.39,12.48 -14.51,23.69 -24.19,33.33 -9.65,9.64 -20.82,17.75 -33.31,24.1 -10.61,5.4 -23.37,9.54 -36.9,12.29 -8.85,1.79 -28.34,2.98 -43.44,3.51 -6.23,0.22 -14.28,0.33 -17.97,0.33l-333.7 -0.06c-3.71,0 -11.75,-0.12 -17.96,-0.33 -15.2,-0.55 -34.85,-1.75 -43.78,-3.57 -13.43,-2.74 -26.13,-6.88 -36.68,-12.27 -12.48,-6.39 -23.69,-14.51 -33.33,-24.19 -9.64,-9.65 -17.75,-20.82 -24.1,-33.31 -5.4,-10.61 -9.54,-23.37 -12.29,-36.9 -1.79,-8.85 -2.98,-28.34 -3.51,-43.44 -0.22,-6.23 -0.33,-14.28 -0.33,-17.97l0.06 -333.7c0,-3.71 0.12,-11.75 0.33,-17.96 0.55,-15.2 1.75,-34.85 3.57,-43.78 2.74,-13.43 6.88,-26.13 12.27,-36.68 6.39,-12.48 14.51,-23.69 24.19,-33.33 9.65,-9.64 20.82,-17.75 33.31,-24.1 10.61,-5.4 23.37,-9.54 36.9,-12.27 8.85,-1.79 28.34,-2.98 43.44,-3.51 6.23,-0.22 14.28,-0.33 17.97,-0.33l333.7 0.06c3.71,0 11.75,0.12 17.96,0.33 15.2,0.55 34.85,1.75 43.78,3.57 13.43,2.74 26.13,6.88 36.68,12.27 12.48,6.39 23.69,14.51 33.33,24.19 9.64,9.65 17.75,20.82 24.1,33.31 5.4,10.61 9.54,23.37 12.29,36.9 1.79,8.85 2.98,28.33 3.51,43.44 0.22,6.23 0.33,14.28 0.33,17.97l-0.06 333.7 0 -0.02z"/>
   </g>
   <g id="WA_Logo" data-name="WA Logo">
    <path class="fil1" d="M517.07 162.21c-45.61,-45.65 -106.27,-70.79 -170.89,-70.83 -133.14,0 -241.52,108.32 -241.58,241.49 0,42.56 11.1,84.11 32.24,120.73l-34.27 125.14 128.06 -33.58c35.28,19.24 75.01,29.38 115.44,29.4l0.1 0c0,0 0,0 0,0 133.15,0 241.53,-108.34 241.57,-241.49 0.02,-64.52 -25.08,-125.2 -70.7,-170.85l0.04 0zm-170.89 371.56l-0.08 0c-36.03,0 -71.36,-9.68 -102.19,-27.98l-7.34 -4.36 -76 19.93 20.29 -74.06 -4.78 -7.59c-20.09,-31.97 -30.72,-68.9 -30.7,-106.82 0.04,-110.66 90.12,-200.71 200.87,-200.71 53.64,0.02 104.04,20.92 141.96,58.86 37.91,37.94 58.77,88.37 58.74,142 -0.04,110.69 -90.12,200.73 -200.79,200.73l0 0zm110.14 -150.33c-6.03,-3.01 -35.71,-17.61 -41.25,-19.64 -5.54,-2.01 -9.57,-3.02 -13.59,3.02 -4.02,6.03 -15.6,19.64 -19.11,23.66 -3.53,4.03 -7.04,4.54 -13.08,1.52 -6.03,-3.02 -25.48,-9.38 -48.55,-29.95 -17.94,-15.99 -30.05,-35.75 -33.58,-41.81 -3.53,-6.03 -0.37,-9.31 2.64,-12.31 2.72,-2.7 6.03,-7.04 9.05,-10.57 3.02,-3.53 4.02,-6.03 6.03,-10.08 2.02,-4.02 1.01,-7.55 -0.51,-10.57 -1.52,-3.02 -13.59,-32.71 -18.62,-44.8 -4.89,-11.77 -9.88,-10.17 -13.59,-10.35 -3.51,-0.18 -7.55,-0.22 -11.57,-0.22 -4.03,0 -10.57,1.52 -16.09,7.55 -5.54,6.04 -21.12,20.65 -21.12,50.35 0,29.7 21.63,58.39 24.65,62.41 3.02,4.02 42.55,64.97 103.11,91.11 14.4,6.21 25.64,9.94 34.41,12.72 14.46,4.59 27.63,3.94 38.02,2.39 11.6,-1.74 35.71,-14.6 40.74,-28.69 5.03,-14.1 5.03,-26.17 3.53,-28.69 -1.5,-2.52 -5.54,-4.02 -11.58,-7.04l0.04 0z"/>
   </g>
  </g>
 </g>
</svg>
